<?xml version="1.0" ?><!DOCTYPE svg  PUBLIC '-//W3C//DTD SVG 1.1//EN'  'http://www.w3.org/Graphics/SVG/1.1/DTD/svg11.dtd'><svg enable-background="new 0 0 24 24" height="24px" id="Layer_1" version="1.1" viewBox="0 0 24 24" width="24px" xml:space="preserve" xmlns="http://www.w3.org/2000/svg" xmlns:xlink="http://www.w3.org/1999/xlink"><g><path d="M19.7,0.5H4.3c-2.1,0-3.8,1.7-3.8,3.8v15.4c0,2.1,1.7,3.8,3.8,3.8h15.4c2.1,0,3.8-1.7,3.8-3.8V4.3   C23.5,2.2,21.8,0.5,19.7,0.5z M12,20.2c-1.6,0-6.4-5.2-6.4-9.8c0-3.6,2.9-6.5,6.4-6.5c3.5,0,6.4,2.9,6.4,6.5   C18.4,14.9,13.6,20.2,12,20.2z"/><path d="M12.2,7.2c0.1,0.3,0.2,0.6,0.2,0.9c0,1.1-0.9,2-1.9,2c-0.6,0-1.1-0.3-1.5-0.7c-0.1,0.3-0.2,0.6-0.2,1   c0,1.7,1.4,3.2,3.1,3.2c1.7,0,3.1-1.4,3.1-3.2C15.1,8.7,13.8,7.3,12.2,7.2z"/></g></svg>